<?xml version="1.0" standalone="no"?>
<svg xmlns="http://www.w3.org/2000/svg" version="1.1" xmlns:xlink="http://www.w3.org/1999/xlink" width="512" height="512" x="0" y="0" viewBox="0 0 96 96" style="enable-background:new 0 0 512 512" xml:space="preserve" class=""><g><path d="M86 15H10a3.003 3.003 0 0 0-3 3v60a3.003 3.003 0 0 0 3 3h76a3.003 3.003 0 0 0 3-3V18a3.003 3.003 0 0 0-3-3zm-76 2h76a1 1 0 0 1 1 1v12H9V18a1 1 0 0 1 1-1zM9 78V32h13v47H10a1 1 0 0 1-1-1zm77 1H24V32h63v46a1 1 0 0 1-1 1zM13 23.5a2.5 2.5 0 1 1 2.5 2.5 2.503 2.503 0 0 1-2.5-2.5zm7 0a2.5 2.5 0 1 1 2.5 2.5 2.503 2.503 0 0 1-2.5-2.5zm7 0a2.5 2.5 0 1 1 2.5 2.5 2.503 2.503 0 0 1-2.5-2.5zM30 66h19v2H30zm0-9h19v2H30zm30-7H30v-2h30zm6-9H30v-2h36zm10.05.15a1 1 0 0 0-1.414 0L56.25 59.537a.987.987 0 0 0-.255.514l-.019-.004-1.414 7.071a1 1 0 0 0 .98 1.197.99.99 0 0 0 .197-.02l7.071-1.414-.004-.018a.973.973 0 0 0 .515-.256l18.385-18.384a1 1 0 0 0 0-1.414zM57.572 62.27l3.015 3.015-3.768.754zm5.043 2.216-4.243-4.243 14.155-14.155 2.813 2.838 1.42-1.408-2.819-2.844 1.402-1.402 4.243 4.243z" fill="#193552" opacity="1" data-original="#000000" class=""/></g></svg>