<?xml version="1.0" standalone="no"?>
<svg xmlns="http://www.w3.org/2000/svg" version="1.1" xmlns:xlink="http://www.w3.org/1999/xlink" width="512" height="512" x="0" y="0" viewBox="0 0 511.96 511.96" style="enable-background:new 0 0 512 512" xml:space="preserve" class=""><g><path d="M424.277 389.246c7.338-24.587 17.343-58.104-7.772-73.757l-.168-.592c-3.129-11.15-10.063-18.614-32.845-18.614l-.374.001c.169-2.76.719-6.456 1.099-9.008 1.593-10.7 3.239-21.763-5.134-27.664-7.975-5.62-17.615-.471-20.783 1.222-6.698 3.579-16.369 3.823-17.506 1.806-6.233-11.095-13.625-18.794-19.773-24.992 3.016-8.562 5.007-17.659 5.007-26.76 0-10.773-2.619-21.453-7.435-31.13 2.576-4.979 5.593-10.394 9.008-16.164 6.211-10.492 7.948-10.822 11.408-11.479 4.771-.906 11.949-2.269 22.716-11.067 2.219-.582 8.459.113 12.247.535 9.34 1.04 18.164 2.025 24.225-3.398 2.979-2.665 4.618-6.437 4.618-10.621 0-6.516-1.803-10.901-3.118-14.103-1.61-3.917-2.773-6.747 6.516-21.826 2.078-3.375 2.227-7.439.395-10.872-3.769-7.066-11.567-7.368-32.411-8.175-10.412-.403-22.213-.86-32.452-2.264-14.419-1.977-17.854-4.846-18.396-5.4-2.702-2.768-5.135-7.047-8.216-12.465-6.261-11.011-14.833-26.089-34.597-45.841-7.366-7.361-18.701-8.72-28.205-3.379-9.819 5.518-14.667 16.433-12.062 27.163 3.82 15.737 2.166 18.246-14.062 36.289-8.729 9.706-16.378 11.058-25.234 12.623-8.232 1.455-17.562 3.104-26.498 11.257-9.012 8.223-16.066 21.866-22.197 42.93-1.627-1.621-3.426-3.574-4.845-5.113-8.227-8.93-18.467-20.044-32.109-20.296-7.383-.105-14.331 2.958-20.658 9.203-4.833 4.064-15.543 14.643-15.276 28.335.1 5.138 1.835 12.364 8.93 19.415-1.289 4.256-2.948 9.988-1.948 16.311.935 5.905 4.532 13.964 16.367 18.827 4.058 1.667 13.186 7.346 28.724 26.64a9.982 9.982 0 0 0 7.795 3.728 9.961 9.961 0 0 0 6.266-2.212c4.301-3.464 4.98-9.76 1.516-14.061-13.988-17.37-26.336-28.336-36.699-32.594-4.865-1.999-5.333-2.75-2.775-11.186 1.33-4.384 3.804-12.544-2.982-17.759-3.403-2.615-5.151-5.138-5.198-7.499-.078-3.977 4.093-9.259 8.261-12.729.508-.423.796-.71.883-.797 2.42-2.439 4.56-3.678 6.424-3.625 5.095.094 12.42 8.045 17.77 13.851 7.715 8.374 15.004 16.278 24.907 13.956 9.622-2.261 12.79-13.161 13.832-16.743 4.995-17.18 10.389-28.239 16.492-33.807 4.65-4.243 9.62-5.121 16.498-6.336 10.375-1.834 23.289-4.116 36.624-18.943 17.829-19.823 24.817-28.884 18.627-54.382-.703-2.896 1.46-4.467 2.423-5.008.628-.353 2.792-1.389 4.271.089 17.852 17.841 25.335 31.002 31.348 41.578 3.643 6.407 6.788 11.94 11.293 16.553 10.515 10.768 34.335 12.514 64.383 13.677 2.98.115 6.245.242 9.262.396-5.742 12.341-4.997 19.553-1.486 28.096.173.42.335.814.485 1.193-1.852-.146-3.868-.371-5.494-.552-9.736-1.086-19.801-2.208-26.781 3.576-7.046 5.839-10.486 6.492-14.129 7.184-9.733 1.848-15.637 5.31-24.889 20.941a394.513 394.513 0 0 0-4.706 8.164c-.229-.234-.446-.479-.678-.71-13.243-13.193-30.548-20.449-48.679-20.449h-.522c-18.205 0-35.511 7.257-48.754 20.449-13.36 13.309-21.022 31.544-21.022 50.029 0 26.387 16.727 52.745 26.697 66.108 4.308 5.773 26.64 34.573 43.303 34.573s38.995-28.8 43.303-34.573c3.728-4.996 8.4-11.809 12.789-19.76 3.949 4.292 7.807 9.093 11.24 15.202 8.189 14.576 28.696 13.115 41.722 7.326a220.59 220.59 0 0 1-.646 4.568c-1.489 10.007-3.029 20.355 3.064 27.147 2.997 3.34 7.329 5.076 12.163 4.883 14.062-.552 16.716 1.843 16.724 1.842.186.279.492 1.373.695 2.097.829 2.955 2.373 8.455 8.172 11.76 12.074 6.883 7.558 25.672-.141 51.465-5.565 18.649-10.372 34.754-3.606 46.022 4.275 7.12 1.943 20.831.947 26.686-.448 2.632-.718 4.221-.669 5.841.233 7.796-.694 11.111-1.157 12.26-.439.042-.993.071-1.413.094-2.158.115-5.112.273-8.091 1.791-2.491 1.269-6.77 4.458-7.438 11.556-.226 2.393-.658 3.641-.92 4.205-1.285-.06-5.517-.779-14.025-6.737-7.603-5.323-14.109-11.66-16.756-14.565-8-8.781-21.606-14.585-33.611-19.705-6.215-2.651-14.728-6.282-16.803-8.428-7.283-7.535-17.283-13.784-27.87-20.401-19.042-11.9-38.731-24.206-37.962-42.197.518-12.114-7.213-22.769-15.399-34.049-6.537-9.008-13.297-18.323-15.557-28.019-1.547-6.638-4.645-15.06-9.207-25.034-2.297-5.022-8.229-7.234-13.253-4.934-5.022 2.297-7.231 8.231-4.934 13.253 3.951 8.639 6.689 15.989 7.917 21.254 3.177 13.632 11.502 25.104 18.848 35.226 5.813 8.011 11.825 16.295 11.605 21.448-1.268 29.63 25.686 46.476 47.344 60.011 9.519 5.949 18.51 11.568 24.091 17.342 4.887 5.055 13.436 8.701 23.335 12.924 9.626 4.105 21.605 9.215 26.673 14.777 1.14 1.25 25.596 27.814 45.871 27.814 2.196 0 4.344-.312 6.406-1.001 5.055-1.688 11.188-5.997 13.45-16.802 13.53-1.807 19.38-11.877 18.862-32.221.069-.51.24-1.516.382-2.348 1.483-8.721 4.57-26.867-3.518-40.336-.045-.075-1.088-1.917.118-8.992 1.013-5.976 3.194-13.282 5.503-21.018zM284.625 263.232c-12.621 17.423-24.553 26.757-28.599 28.222-4.046-1.465-15.978-10.799-28.599-28.222-13.601-18.775-21.401-37.854-21.401-52.345 0-13.206 5.517-26.276 15.138-35.86 9.467-9.431 21.762-14.618 34.716-14.618h.367c12.877 0 25.174 5.188 34.641 14.618 9.62 9.583 15.138 22.654 15.138 35.859 0 7.407-2.05 16.017-5.859 25.168a7.042 7.042 0 0 0-.055.128c-3.64 8.715-8.871 17.917-15.487 27.05z" fill="#193552" opacity="1" data-original="#000000"/><path d="M256.027 180.887c-16.542 0-30 13.458-30 30s13.458 30 30 30 30-13.458 30-30-13.458-30-30-30zm0 40c-5.514 0-10-4.486-10-10s4.486-10 10-10 10 4.486 10 10-4.486 10-10 10zM165.037 247.434h-.007c-5.523 0-9.996 4.477-9.996 10s4.48 10 10.003 10 10-4.477 10-10-4.477-10-10-10z" fill="#193552" opacity="1" data-original="#000000"/></g></svg>