<?xml version="1.0" standalone="no"?>
<svg xmlns="http://www.w3.org/2000/svg" version="1.1" xmlns:xlink="http://www.w3.org/1999/xlink" width="512" height="512" x="0" y="0" viewBox="0 0 512 512" style="enable-background:new 0 0 512 512" xml:space="preserve" class=""><g><path d="M256.91 317.35a41.13 41.13 0 0 0-12.35-26.05c-4-4.25-9.48-10.06-23.49-10.06a17.27 17.27 0 0 0-14.3 7c-5.26 7.12-4.82 17.37-3.23 22.52.73 2.4 2.27 7.39 21.3 12.84 3.28.93 13.19 3.58 20.44 3.58 7 .33 12.19-4 11.63-9.81zm-39.33-12.45c-.32-2.46 0-6 1.25-7.77.28-.37.66-.89 2.24-.89 7.54 0 9.33 1.9 12.58 5.35a28 28 0 0 1 6.78 10.18c-7.43-1.19-18.86-4.49-22.85-6.87z" fill="#193552" opacity="1" data-original="#000000" class=""/><path d="M350.45 302.19h-85.31c-9.91.33-9.95 14.65 0 15h85.31c9.91-.34 9.95-14.66 0-15zM340.42 322.26h-65.25c-9.91.33-9.94 14.65 0 15h65.25c9.91-.34 9.94-14.66 0-15z" fill="#193552" opacity="1" data-original="#000000" class=""/><path d="M394.52 281.24c-14 0-19.5 5.81-23.5 10.06a41.07 41.07 0 0 0-12.34 26.05c-.34 3.9 2 8.35 7.87 9.5 7.33 1.36 20.27-2.18 24.2-3.28 19-5.44 20.56-10.43 21.3-12.83 3.46-11.25-.92-29.56-17.53-29.5zM398 304.9c-4 2.38-15.42 5.68-22.85 6.87a28 28 0 0 1 6.78-10.18c3.25-3.45 5-5.35 12.58-5.35 1.58 0 2 .52 2.24.89 1.25 1.73 1.57 5.31 1.25 7.77z" fill="#193552" opacity="1" data-original="#000000" class=""/><path d="M422.49 241.13c-6.77 0-12 2.73-15 7.53l-17-35.33c-4.24-8.82-15.12-11.67-18.35-12.34-16.42-3.37-33-3.74-64.38-3.74s-48 .37-64.37 3.74c-3.23.67-14.11 3.52-18.35 12.34l-17 35.33c-3-4.8-8.21-7.53-15-7.53-33.59 1.07-29.25 35.87 2.96 33.69a102.73 102.73 0 0 1-10.26 16.31 32 32 0 0 0-6.49 24.92c3 18.07 3.31 35.33 3.36 50.1a16.25 16.25 0 0 0 2.88 9.18V396A14.51 14.51 0 0 0 200 410.53h22.8A14.5 14.5 0 0 0 237.28 396v-13.57h141V396a14.51 14.51 0 0 0 14.49 14.49h22.83A14.51 14.51 0 0 0 430.09 396v-20.67a16.2 16.2 0 0 0 2.88-9.17c.06-15.87.5-32.92 3.36-50.11a32 32 0 0 0-6.49-24.92 102.73 102.73 0 0 1-10.26-16.31c32.24 2.18 36.55-32.63 2.91-33.69zm-183.9-21.3c6.43-8.24 43.7-7.28 69.2-7.58 25.53.31 62.7-.67 69.21 7.58L393 253H222.63zM185.41 258a14.34 14.34 0 0 1 7.69-1.88c.33 0 2 0 2.32.54a6.51 6.51 0 0 1 .64 3.09 28.79 28.79 0 0 1-3 .13 14.43 14.43 0 0 1-7.65-1.88zm36.87 137.52H200.5v-13.1h21.78zm13.13-28.1c4.2-4.53 7-6.89 11.4-6.89h122c4.38 0 7.2 2.36 11.4 6.89zm157.89 28.1v-13.1h21.79v13.1zm28.23-81.94c-3 18.24-3.5 36-3.56 52.52a1.33 1.33 0 0 1-1.34 1.32h-15.34c-10.57-8.51-15.6-21.62-32.51-21.89h-122c-16.92.27-21.93 13.38-32.51 21.89H199a1.34 1.34 0 0 1-1.34-1.34c-.06-16.47-.53-34.24-3.56-52.5a17 17 0 0 1 3.48-13.19C204 292.15 210 281.52 215.72 268h184.15c5.72 13.48 11.69 24.11 18.17 32.37a16.94 16.94 0 0 1 3.49 13.22zm1-53.7a28.64 28.64 0 0 1-3-.13 6.39 6.39 0 0 1 .64-3.09c.35-.52 2-.54 2.32-.54a14.34 14.34 0 0 1 7.69 1.88 14.43 14.43 0 0 1-7.69 1.89z" fill="#193552" opacity="1" data-original="#000000" class=""/><path d="M99.53 348.79A14.49 14.49 0 0 0 114 334.31V320.7h50.51a7.5 7.5 0 1 0 0-15h-52.37c4.2-4.54 7-6.89 11.4-6.89h41a7.5 7.5 0 1 0 0-15h-41c-16.92.27-21.93 13.37-32.51 21.89H75.69a1.34 1.34 0 0 1-1.34-1.34c-.06-16.48-.53-34.24-3.56-52.5a17 17 0 0 1 3.48-13.2c6.49-8.25 12.46-18.88 18.18-32.37h122.61a7.5 7.5 0 0 0 0-15H99.36l16-33.2c6.44-8.23 43.69-7.28 69.21-7.57 25.53.3 62.69-.68 69.2 7.57l10.69 22.24a7.5 7.5 0 1 0 13.52-6.5l-10.69-22.24c-4.24-8.81-15.12-11.67-18.35-12.33-16.42-3.37-33-3.74-64.37-3.74s-48 .37-64.38 3.74c-3.23.66-14.11 3.52-18.35 12.33l-17 35.34c-3-4.8-8.22-7.54-15-7.54-33.65 1.07-29.31 35.9 2.91 33.7a103.07 103.07 0 0 1-10.26 16.3A32 32 0 0 0 56 254.31c3 18.07 3.31 35.34 3.36 50.1a16.26 16.26 0 0 0 2.88 9.19v20.71a14.5 14.5 0 0 0 14.49 14.48zM62.14 196.27a14.43 14.43 0 0 1 7.69-1.88c.33 0 2 0 2.32.54a6.44 6.44 0 0 1 .64 3.1 29.29 29.29 0 0 1-3 .12 14.43 14.43 0 0 1-7.65-1.88zM99 333.79H77.23V320.7H99z" fill="#193552" opacity="1" data-original="#000000" class=""/><path d="M122.11 230.42c-4.84-5-9.42-10.74-24.31-10.91-16.6-.06-21 18.24-17.53 29.5.74 2.4 2.27 7.39 21.3 12.83 3.93 1.1 16.87 4.64 24.2 3.28 5.91-1.16 8.21-5.6 7.87-9.5a40.74 40.74 0 0 0-11.53-25.2zm-27.8 12.75c-.31-2.47 0-6 1.25-7.77.28-.38.66-.89 2.24-.89 7.54 0 9.33 1.9 12.58 5.34a28 28 0 0 1 6.78 10.15c-7.43-1.15-18.86-4.45-22.85-6.83zM348 112c-15.81-3.74-32-4.34-64.59-4.34a553 553 0 0 0-63.84 4.2 7.5 7.5 0 1 0 2 14.87 548.42 548.42 0 0 1 61.88-4.07c31.37 0 46.79.55 61.15 3.94 3.09.73 6.87 2.63 7.9 5.08l21.13 50.65a7.5 7.5 0 1 0 13.84-5.78l-21.13-50.65C362.2 116 351.28 112.74 348 112z" fill="#193552" opacity="1" data-original="#000000" class=""/></g></svg>