<?xml version="1.0" standalone="no"?>
<svg xmlns="http://www.w3.org/2000/svg" version="1.1" xmlns:xlink="http://www.w3.org/1999/xlink" width="512" height="512" x="0" y="0" viewBox="0 0 64 64" style="enable-background:new 0 0 512 512" xml:space="preserve" class=""><g><path d="M22 53c-1.654 0-3 1.346-3 3s1.346 3 3 3 3-1.346 3-3-1.346-3-3-3zm0 4a1 1 0 1 1 0-2 1 1 0 0 1 0 2zM50 53c-1.654 0-3 1.346-3 3s1.346 3 3 3 3-1.346 3-3-1.346-3-3-3zm0 4a1 1 0 1 1 0-2 1 1 0 0 1 0 2z" fill="#193552" opacity="1" data-original="#000000" class=""/><path d="M58 29h-1.714C59.545 25.069 63 19.587 63 14c0-7.168-5.832-13-13-13S37 6.832 37 14c0 3.878 1.664 7.706 3.772 11h-20.21a2.996 2.996 0 0 0-2.91 2.272L17.22 29H14a5.01 5.01 0 0 0-4.899 4H4c-1.654 0-3 1.346-3 3v6c0 1.654 1.346 3 3 3s3-1.346 3-3v-2a3.004 3.004 0 0 0-4-2.829V36a1 1 0 0 1 1-1h5v21c0 1.654 1.346 3 3 3h3.685c1.126 2.361 3.53 4 6.315 4s5.188-1.639 6.315-4h15.37c1.126 2.361 3.53 4 6.315 4s5.188-1.639 6.315-4H60c1.654 0 3-1.346 3-3V34c0-2.757-2.243-5-5-5zM4 39a1 1 0 0 1 1 1v2a1 1 0 0 1-2 0v-2a1 1 0 0 1 1-1zM50 3c6.065 0 11 4.935 11 11 0 8.111-8.562 16.456-11 18.667C47.562 30.456 39 22.111 39 14c0-6.065 4.935-11 11-11zM33 43v-8h4v8zm6-8h4v8h-4zm6 0h4v8h-4zm6 0h4l.002 8H51zm-7.286-6H37v-2h5.151a44.645 44.645 0 0 0 1.563 2zM25 29v-2h4v2zm6-2h4v2h-4zm-11.409.758a1 1 0 0 1 .971-.758H23v2h-3.72zM12 35a1 1 0 0 1 1 1v7h-2v-8zm-1 14h2v2h-2zm11 12c-2.757 0-5-2.243-5-5s2.243-5 5-5 5 2.243 5 5-2.243 5-5 5zm5-9.889A6.973 6.973 0 0 0 22 49a6.955 6.955 0 0 0-3 .685V35h8zM39 57h-6v-4h6zm11 4c-2.757 0-5-2.243-5-5s2.243-5 5-5 5 2.243 5 5-2.243 5-5 5zm10-4h-3.08c.047-.328.08-.66.08-1 0-3.859-3.141-7-7-7s-7 3.141-7 7c0 .34.033.672.08 1H41v-4c0-1.103-.897-2-2-2h-6c-1.103 0-2 .897-2 2v4h-2.08c.047-.328.08-.66.08-1V35c0-1.103-.897-2-2-2h-8c-1.103 0-2 .897-2 2v16.111A6.975 6.975 0 0 0 15 56c0 .34.033.672.08 1H12a1 1 0 0 1-1-1v-3h2c1.103 0 2-.897 2-2v-2c0-1.103-.897-2-2-2h-2v-2h2c1.103 0 2-.897 2-2v-7c0-1.654-1.346-3-3-3h-.816A2.996 2.996 0 0 1 14 31h31.467c.715.772 1.38 1.444 1.954 2H33c-1.103 0-2 .897-2 2v8c0 1.103.897 2 2 2h22c1.103 0 2-.897 2-2v-8c0-1.103-.897-2-2-2h-2.421a51.794 51.794 0 0 0 1.954-2H58c1.654 0 3 1.346 3 3v13h-2c-1.103 0-2 .897-2 2v2c0 1.103.897 2 2 2h2v3a1 1 0 0 1-1 1zm1-8v2h-2v-2z" fill="#193552" opacity="1" data-original="#000000" class=""/><path d="M21 37h4v2h-4zM21 41h4v2h-4zM57 14c0-3.86-3.141-7-7-7s-7 3.14-7 7 3.141 7 7 7 7-3.14 7-7zm-12 0c0-2.757 2.243-5 5-5s5 2.243 5 5-2.243 5-5 5-5-2.243-5-5z" fill="#193552" opacity="1" data-original="#000000" class=""/></g></svg>